<svg width="255" height="22" viewBox="0 0 255 22" fill="none" xmlns="http://www.w3.org/2000/svg">
<g id="Group 6">
<g id="Vector">
<path d="M185.411 1.30203L179.746 18.0206L174.054 1.30203H172.147L166.371 17.9377L160.789 1.30203H158.689L165.211 20.6458H167.339L173.031 4.14834L178.696 20.6458H180.852L187.373 1.30203H185.411Z" fill="#424242"/>
<path d="M199.39 20.8116C205.193 20.8116 209.531 16.6389 209.531 10.9739C209.531 5.30896 205.193 1.13623 199.39 1.13623C193.531 1.13623 189.22 5.3366 189.22 10.9739C189.22 16.6113 193.531 20.8116 199.39 20.8116ZM199.39 18.9878C194.72 18.9878 191.238 15.5888 191.238 10.9739C191.238 6.35905 194.72 2.96007 199.39 2.96007C204.032 2.96007 207.487 6.35905 207.487 10.9739C207.487 15.5888 204.032 18.9878 199.39 18.9878Z" fill="#424242"/>
<path d="M229.562 20.6458L224.837 14.0137C227.656 13.1017 229.258 10.9739 229.258 7.93419C229.258 3.78909 226.274 1.30203 221.355 1.30203L216.16 1.13623V20.6458V14.5111H221.355C221.908 14.5111 222.405 14.4834 222.903 14.4282L227.324 20.6458H229.562ZM221.3 12.7701H216.16V3.07061H221.3C225.169 3.07061 227.214 4.83918 227.214 7.93419C227.214 10.9739 225.169 12.7701 221.3 12.7701Z" fill="#424242"/>
<path d="M247.985 20.6458H250.417L241.463 10.062L249.836 1.30203H247.487L236.13 12.9912V1.30203H234.085V20.6458H236.13V15.5612L240.081 11.5542L247.985 20.6458Z" fill="#424242"/>
</g>
<path id="Vector_2" d="M253.508 20.7841C254.309 20.7841 255 20.1209 255 19.2642C255 18.4076 254.309 17.772 253.508 17.772C252.706 17.772 252.043 18.4076 252.043 19.2642C252.043 20.1209 252.706 20.7841 253.508 20.7841Z" fill="#424242"/>
<g id="Vector_3">
<path d="M119.893 20.646H122.049L113.206 1.30225H111.189L102.346 20.646H104.474L106.795 15.4785H117.572L119.893 20.646ZM106.795 15.4785L112.183 3.43006L117.572 15.4785H106.795Z" fill="#424242"/>
<path d="M140.696 20.646L135.971 14.0139C138.789 13.102 140.392 10.9741 140.392 7.9344C140.392 3.78931 137.408 1.30225 132.489 1.30225H127.294V20.646V14.5113H132.489C133.041 14.5113 133.539 14.4837 134.036 14.4284L138.458 20.646H140.696ZM132.433 12.7704H127.294V3.07082H132.433C136.302 3.07082 138.347 4.8394 138.347 7.9344C138.347 10.9741 136.302 12.7704 132.433 12.7704Z" fill="#424242"/>
<path d="M148.707 20.646H150.752V3.07082H157.55V1.30225H141.909V3.07082H148.707V20.646Z" fill="#424242"/>
</g>
<g id="Vector_4">
<path d="M0.405312 20.2515H6.23604C12.4261 20.2515 16.5988 16.2722 16.5988 10.5796C16.5988 4.88701 12.4261 0.907715 6.23604 0.907715H0.405273L0.405312 20.2515ZM0.405273 18.4829V2.67629H6.12551C11.2654 2.67629 14.5815 5.9371 14.5815 10.5796C14.5815 15.2221 11.2654 18.4829 6.12551 18.4829H0.405273Z" fill="#424242"/>
<path d="M23.2357 18.4829V11.2981H33.2392V9.55715H23.2357V2.67629H34.4551V0.907715H21.1908V20.2515H34.8696V18.4829H23.2357Z" fill="#424242"/>
<path d="M55.1238 20.2515L50.3984 13.6194C53.2171 12.7074 54.8198 10.5796 54.8198 7.53987C54.8198 3.39477 51.8354 0.907715 46.9165 0.907715H41.7213V20.2515V14.1168H46.9165C47.4692 14.1168 47.9666 14.0891 48.464 14.0339L52.8854 20.2515H55.1238ZM46.8612 12.3758H41.7213V2.67629H46.8612C50.73 2.67629 52.7749 4.44487 52.7749 7.53987C52.7749 10.5796 50.73 12.3758 46.8612 12.3758Z" fill="#424242"/>
<path d="M61.6912 18.4829V11.2981H71.6947V9.55715H61.6912V2.67629H72.9106V0.907715H59.6463V20.2515H73.3251V18.4829H61.6912Z" fill="#424242"/>
<path d="M78.1319 20.2515H91.0093V18.4829H80.1768V0.907715H78.1319V20.2515Z" fill="#424242"/>
</g>
<path id="Rectangle 103" d="M199.008 0.907715H200.489V21.1397H199.008V0.907715Z" fill="white"/>
</g>
</svg>
