<svg width="14" height="14" viewBox="0 0 14 14" fill="none" xmlns="http://www.w3.org/2000/svg">
<path d="M11.9408 1.16659H2.05916C1.94808 1.16504 1.83779 1.1854 1.73457 1.22648C1.63136 1.26757 1.53725 1.32859 1.45763 1.40605C1.378 1.48351 1.31441 1.5759 1.27049 1.67794C1.22657 1.77998 1.20318 1.88967 1.20166 2.00075V11.9991C1.20318 12.1102 1.22657 12.2199 1.27049 12.3219C1.31441 12.4239 1.378 12.5163 1.45763 12.5938C1.53725 12.6712 1.63136 12.7323 1.73457 12.7734C1.83779 12.8144 1.94808 12.8348 2.05916 12.8333H11.9408C12.0519 12.8348 12.1622 12.8144 12.2654 12.7734C12.3686 12.7323 12.4627 12.6712 12.5424 12.5938C12.622 12.5163 12.6856 12.4239 12.7295 12.3219C12.7734 12.2199 12.7968 12.1102 12.7983 11.9991V2.00075C12.7968 1.88967 12.7734 1.77998 12.7295 1.67794C12.6856 1.5759 12.622 1.48351 12.5424 1.40605C12.4627 1.32859 12.3686 1.26757 12.2654 1.22648C12.1622 1.1854 12.0519 1.16504 11.9408 1.16659ZM4.71916 10.9316H2.96916V5.68159H4.71916V10.9316ZM3.84416 4.94658C3.60281 4.94658 3.37135 4.85071 3.20069 4.68005C3.03003 4.50939 2.93416 4.27793 2.93416 4.03659C2.93416 3.79524 3.03003 3.56378 3.20069 3.39312C3.37135 3.22246 3.60281 3.12659 3.84416 3.12659C3.97232 3.11205 4.1021 3.12475 4.225 3.16385C4.34791 3.20295 4.46117 3.26757 4.55738 3.35348C4.65358 3.43939 4.73055 3.54465 4.78325 3.66237C4.83595 3.78009 4.8632 3.90761 4.8632 4.03659C4.8632 4.16556 4.83595 4.29309 4.78325 4.4108C4.73055 4.52852 4.65358 4.63378 4.55738 4.71969C4.46117 4.8056 4.34791 4.87022 4.225 4.90932C4.1021 4.94842 3.97232 4.96112 3.84416 4.94658ZM11.0308 10.9316H9.28083V8.11409C9.28083 7.40825 9.02999 6.94742 8.39416 6.94742C8.19738 6.94886 8.00577 7.01058 7.84515 7.12427C7.68453 7.23796 7.56261 7.39815 7.49583 7.58325C7.45018 7.72036 7.4304 7.86475 7.43749 8.00909V10.9258H5.68749C5.68749 10.9258 5.68749 6.15409 5.68749 5.67575H7.43749V6.41659C7.59647 6.14073 7.82769 5.91347 8.10625 5.75929C8.38481 5.6051 8.70016 5.52983 9.01833 5.54159C10.185 5.54159 11.0308 6.29409 11.0308 7.90992V10.9316Z" fill="white"/>
</svg>
