<svg width="36" height="35" viewBox="0 0 36 35" fill="none" xmlns="http://www.w3.org/2000/svg">
<path id="Vector" d="M17.6596 0L0 34.9448C0.774971 34.9448 1.4711 34.9763 2.12861 34.9642C2.73802 34.9529 3.31747 34.9933 3.87328 34.9731C7.12847 35.0541 8.04219 34.6492 8.64057 31.9424C8.92359 30.6623 9.78292 30.323 11.0688 30.3587C12.0794 30.387 13.0917 30.417 14.1048 30.4396L11.9975 24.673L17.9008 13.211L23.3721 24.4244L21.3357 30.3838C21.6054 30.3681 21.8747 30.3506 22.1438 30.3311C24.7581 30.1425 26.3317 30.9254 27.0656 33.5238C27.2288 34.1003 27.3644 34.9261 28.2324 34.9342C30.5234 34.9553 32.8152 34.9415 35.3585 34.9415L17.6596 0Z" fill="#424242"/>
</svg>
